<?xml version="1.0" standalone="no"?>
<svg xmlns:xlink="http://www.w3.org/1999/xlink" id="wave" style="transform:rotate(180deg); transition: 0.3s" viewBox="0 0 1440 100" version="1.1" xmlns="http://www.w3.org/2000/svg"><defs><linearGradient id="sw-gradient-0" x1="0" x2="0" y1="1" y2="0"><stop stop-color="rgba(255, 255, 255, 1)" offset="0%"/><stop stop-color="rgba(255, 255, 255, 1)" offset="100%"/></linearGradient></defs><path style="transform:translate(0, 0px); opacity:1" fill="url(#sw-gradient-0)" d="M0,60L96,10L192,80L288,70L384,40L480,20L576,30L672,10L768,30L864,40L960,60L1056,30L1152,10L1248,80L1344,40L1440,70L1536,0L1632,40L1728,60L1824,20L1920,80L2016,0L2112,90L2208,30L2304,50L2304,100L2208,100L2112,100L2016,100L1920,100L1824,100L1728,100L1632,100L1536,100L1440,100L1344,100L1248,100L1152,100L1056,100L960,100L864,100L768,100L672,100L576,100L480,100L384,100L288,100L192,100L96,100L0,100Z"/></svg>